<svg width="29" height="29" viewBox="0 0 29 29" fill="none" xmlns="http://www.w3.org/2000/svg">
<path d="M5.8 17.4362H17.1462V15.2612H5.8V17.4362ZM5.8 12.7237H23.2V10.5487H5.8V12.7237ZM5.8 8.01125H23.2V5.83625H5.8V8.01125ZM0 29V2.175C0 1.595 0.2175 1.0875 0.6525 0.6525C1.0875 0.2175 1.595 0 2.175 0H26.825C27.405 0 27.9125 0.2175 28.3475 0.6525C28.7825 1.0875 29 1.595 29 2.175V21.025C29 21.605 28.7825 22.1125 28.3475 22.5475C27.9125 22.9825 27.405 23.2 26.825 23.2H5.8L0 29ZM4.8575 21.025H26.825V2.175H2.175V23.925L4.8575 21.025Z" fill="#5FC75D"/>
</svg>
