<svg width="29" height="29" viewBox="0 0 29 29" fill="none" xmlns="http://www.w3.org/2000/svg">
<path d="M2.41667 29C1.75208 29 1.18316 28.7634 0.709896 28.2901C0.236632 27.8168 0 27.2479 0 26.5833V2.41667C0 1.75208 0.236632 1.18316 0.709896 0.709896C1.18316 0.236632 1.75208 0 2.41667 0H26.5833C27.2479 0 27.8168 0.236632 28.2901 0.709896C28.7634 1.18316 29 1.75208 29 2.41667V26.5833C29 27.2479 28.7634 27.8168 28.2901 28.2901C27.8168 28.7634 27.2479 29 26.5833 29H2.41667ZM2.41667 26.5833H26.5833V5.63889H2.41667V26.5833ZM6.44444 14.0972V11.6806H22.1528V14.0972H6.44444ZM6.44444 20.5417V18.125H15.7083V20.5417H6.44444Z" fill="#5FC75D"/>
</svg>
