<svg width="28" height="29" viewBox="0 0 28 29" fill="none" xmlns="http://www.w3.org/2000/svg">
<path d="M4.35 29V22.765C2.9725 21.5083 1.90313 20.0402 1.14188 18.3606C0.380625 16.681 0 14.9108 0 13.05C0 9.425 1.26875 6.34375 3.80625 3.80625C6.34375 1.26875 9.425 0 13.05 0C16.0708 0 18.7473 0.888125 21.0794 2.66437C23.4115 4.44062 24.9279 6.75458 25.6288 9.60625L27.6225 17.5087C27.7192 17.8471 27.6588 18.1552 27.4413 18.4331C27.2238 18.711 26.9338 18.85 26.5713 18.85H23.2V23.925C23.2 24.5231 22.987 25.0352 22.5611 25.4611C22.1352 25.887 21.6231 26.1 21.025 26.1H17.4V29H15.225V23.925H21.025V16.675H25.1575L23.5263 10.15C22.9463 7.80583 21.6775 5.89062 19.72 4.40438C17.7625 2.91812 15.5392 2.175 13.05 2.175C10.0292 2.175 7.46146 3.22021 5.34688 5.31063C3.23229 7.40104 2.175 9.95111 2.175 12.9608C2.175 14.5176 2.49308 15.9965 3.12925 17.3975C3.76543 18.7986 4.66777 20.044 5.83625 21.1337L6.525 21.7862V29H4.35ZM11.9263 18.3425H14.1013L14.21 16.7475C14.5 16.6992 14.7715 16.5969 15.0246 16.4408C15.2777 16.2846 15.5016 16.1089 15.6963 15.9137L17.2188 16.4212L18.2338 14.6812L17.1463 13.8112C17.2671 13.4729 17.3275 13.1225 17.3275 12.76C17.3275 12.3975 17.2671 12.0471 17.1463 11.7087L18.2338 10.8387L17.2188 9.09875L15.6963 9.60625C15.4949 9.42036 15.2633 9.25305 15.0014 9.10433C14.7396 8.95561 14.4758 8.845 14.21 8.7725L14.1013 7.1775H11.9263L11.8175 8.7725C11.5517 8.845 11.2879 8.95561 11.0261 9.10433C10.7642 9.25305 10.5326 9.42036 10.3313 9.60625L8.80875 9.09875L7.79375 10.8387L8.88125 11.7087C8.76042 12.0471 8.7 12.3975 8.7 12.76C8.7 13.1225 8.76042 13.4729 8.88125 13.8112L7.79375 14.6812L8.80875 16.4212L10.3313 15.9137C10.5259 16.1089 10.7498 16.2846 11.0029 16.4408C11.256 16.5969 11.5275 16.6992 11.8175 16.7475L11.9263 18.3425ZM13.018 15.2975C12.3143 15.2975 11.7148 15.0512 11.2194 14.5587C10.724 14.0661 10.4763 13.4679 10.4763 12.7643C10.4763 12.0606 10.7225 11.461 11.2151 10.9656C11.7077 10.4702 12.3058 10.2225 13.0095 10.2225C13.7132 10.2225 14.3127 10.4688 14.8081 10.9613C15.3035 11.4539 15.5513 12.0521 15.5513 12.7557C15.5513 13.4594 15.305 14.059 14.8124 14.5544C14.3198 15.0498 13.7217 15.2975 13.018 15.2975Z" fill="#5FC75D"/>
</svg>
