<svg width="310" height="302" viewBox="0 0 310 302" fill="none" xmlns="http://www.w3.org/2000/svg">
<path d="M205.141 302C186.236 302 168.288 294.821 154.648 281.899C141.008 294.582 123.06 301.761 104.394 301.761C88.8396 301.761 74.0029 296.975 61.3198 287.642C32.6035 266.823 23.2707 228.055 38.1075 196.707C7.23742 179.956 -7.36003 143.821 3.64789 109.601C13.4593 79.2092 41.697 58.8684 73.5243 58.8684C76.6352 58.8684 79.7461 59.1077 82.857 59.5863C89.3182 25.1267 119.231 0 155.126 0C190.543 0 220.935 25.8447 227.396 59.8257C230.507 59.3471 233.618 59.347 236.489 59.347C268.317 59.347 296.554 79.6878 306.366 110.079C317.374 143.821 302.298 180.673 271.667 197.185C286.743 229.013 277.41 266.822 248.215 287.881C235.532 296.975 220.695 302 205.141 302Z" fill="#0F052D"/>
</svg>
